<?xml version="1.0" encoding="utf-8"?>
<!-- Generator: Adobe Illustrator 15.1.0, SVG Export Plug-In  -->
<!DOCTYPE svg PUBLIC "-//W3C//DTD SVG 1.1//EN" "http://www.w3.org/Graphics/SVG/1.1/DTD/svg11.dtd" [
	<!ENTITY ns_flows "http://ns.adobe.com/Flows/1.0/">
]>
<svg version="1.1"
	 xmlns="http://www.w3.org/2000/svg" xmlns:xlink="http://www.w3.org/1999/xlink" xmlns:a="http://ns.adobe.com/AdobeSVGViewerExtensions/3.0/"
	 x="0px" y="0px" width="200px" height="200px" viewBox="-5.837 -5.354 200 200" enable-background="new -5.837 -5.354 200 200"
	 xml:space="preserve">
<defs>
</defs>
<path d="M5.269,4.336c0,0,4.8,3.467,7.199,4.801c2.4,1.334,6.134,3.199,7.2,4.267c1.067,1.067,2.934,2.667,4.8,3.466
	c1.867,0.801,6.4,1.867,8,1.867c1.601,0,6.667,1.066,8.801,1.867c2.133,0.8,5.333,2.666,5.333,2.666s0.219,0.078,0.528,0.17
	c0.967,0.289,2.817,0.711,1.605-0.703c0,0-1.496-1.632-4.496-3.832c-3-2.199-4.237-2.875-5.438-3.875s-2.601-2.025-2.2-2.826
	s2.4-0.934,3.2-1.133c0.8-0.201-5-1.801-9.601-3.4c-4.6-1.6-11-3.199-14.399-3.801c-3.4-0.6-5.8-1.199-11,0.201"/>
<path fill="#FFFFFF" stroke="#131807" stroke-width="0.5" d="M95.201,137.263c-1.8,3.4-6.6,8-12.199,10.4
	c-5.601,2.398-12.534,2.266-12.534,2.266c-10.399,2-33.332-7.867-35.199-9.467c-1.866-1.6-4-3.6-5.733-6.666s-3.2-8.268-3.066-12
	c0.133-3.734,2.267-8.533,3.866-11.066c1.601-2.533,4.801-5.467,7.2-7.732c2.4-2.266,10.134-7.864,13.467-10.929
	c3.334-3.065,6.8-7.997,11.066-14.931s4.667-14.4,4.533-16.934s-3.6-8.133-4.933-9.867c-0.689-0.896-1.771-2.434-2.875-4.041
	c-1.033-1.502-2.086-3.066-2.858-4.225c-1.6-2.4-3.333-5.867-6.533-9.467s-5.733-4.934-8.134-6.667s-10-7.067-10-7.067l-0.134-0.133
	c1.601,0,7.067,0.667,9.2,1.467c2.134,0.801,5.334,2.666,5.334,2.666s0.219,0.078,0.527,0.171l1.072,0.497
	c0,0,2.333,1.6,4.533,2.799c2.2,1.201,3.8,2,5,2.601s2.4,1.601,2.4,0.601s-1.801-2.201-2.2-3.4c-0.4-1.2-1.601-2.4-0.2-2.4
	s3.6,0.2,6,1c2.4,0.801,5.6,0,9.2,2.4c3.6,2.4,6.399,5.199,8.8,7.8s7.4,7,7.4,7s-2.801-4.399-4.4-7s-5.2-8-6-8.8
	c-0.8-0.801-3.2-3.4-3.2-5.2s-0.2-2.8,2-2.8s6.167,0.875,8.366,3.476c2.201,2.6,8.6,7.109,10.334,16
	c1.615,8.284,4.584,9.724,1.784,21.324c0,0,0.4,2.733,0,6.333c-0.399,3.6,0.134,2.533,0,14.4c-0.134,11.864-0.399,25.993,0,33.725
	c0.4,7.732-0.484,18.133-0.751,19.867C96.068,134.995,95.201,137.263,95.201,137.263z"/>
<path d="M97.086,55.725c0,0,4.146-0.004,10.472-3.814s5.174-2.842,5.174-2.842s0.984-1.887,2.557-5.646s3.51-8.326,4.505-9.949
	c0.994-1.623,2.607-4.327,2.607-4.327s1.349,0.741,2.806,0.817c1.456,0.075,3.551-0.402,5.301-2.979
	c1.75-2.578,1.06-3.344,1.06-3.344s5.221-1.654,7.574-2.273c2.354-0.619,7.702-2.41,9.533-2.877s4.107-0.585,6.44-1.731
	c0,0-0.206-1.019-6.658-0.505c-6.453,0.512-8.686,0.861-9.36,0.492c-0.675-0.371,1.11-2.024,2.906-3.414
	c1.796-1.391,5.423-3.248,7.519-3.725s3.389-1.188,3.389-1.188s-4.773-0.477-9.365,0.361c-4.592,0.836-5.642,1.01-8.025,0.837
	c-2.385-0.173-10.735-0.907-15.407,1.254c-4.673,2.161-13.692,8.058-18.688,18.95c-4.997,10.892-3.682,14.144-3.809,17.715
	C97.487,51.11,97.086,55.725,97.086,55.725z"/>
<path fill="#FFFFFF" d="M125.045,27.414c0,0,1.656-3.2,4.328-3.26c0,0-1.905-1.771-3.118-1.488c-1.213,0.281-2.309,1.44-2.277,2.567
	C124.01,26.362,125.045,27.414,125.045,27.414z"/>
<path fill="none" stroke="#F0027F" stroke-width="0.25" stroke-linecap="round" stroke-linejoin="round" d="M153.563,8.263
	c0,0,3.052-0.515,5.411-1.001c2.358-0.487,5.018-0.887,8.438-2.108s8.363-4.087,9.641-4.335c1.279-0.246,5.217-0.895,7.021-0.369
	s-5.703,6.264-6.438,7.777c-0.734,1.516-20.058,21.975-22.01,22.744"/>
<path fill="#E5BD3D" stroke="#131807" stroke-width="0.5" stroke-linecap="round" stroke-linejoin="round" d="M155.086,16.422
	c0,0-0.597-0.393-6.63-0.168c-6.469,0.24-8.686,0.861-9.36,0.492c-0.675-0.371,1.11-2.024,2.906-3.414
	c1.796-1.391,5.423-3.248,7.519-3.725s3.389-1.188,3.389-1.188l0.654-0.157c0,0,3.052-0.515,5.411-1.001
	c2.358-0.487,5.018-0.887,8.438-2.108s8.363-4.087,9.641-4.335c1.279-0.246,5.217-0.895,7.021-0.369s-5.703,6.264-6.438,7.777
	c-0.734,1.516-20.058,21.975-22.01,22.744l-1.073,0.438c1.354-2.563,2.618-4.922,3.12-5.604c0.502-0.68-1.609,1.086-4.304,3.172
	l-0.201-0.092c1.396-1.506,3.419-3.83,4.276-5.58s1.648-5.215,0.964-5.85s-2.648-0.801-2.648-0.801L155.086,16.422"/>
<path stroke="#131807" stroke-width="0.25" stroke-linecap="round" stroke-linejoin="round" d="M157.62,13.258
	c0,0,1.655-0.133,2.652-0.425c0.195-0.058,0.366-0.121,0.494-0.19c0.775-0.428,2.804-1.793,3.683-2.125
	c0.879-0.33,1.762-0.563,1.005,0.358s-2.01,1.86-2.801,1.892C161.862,12.797,157.62,13.258,157.62,13.258z"/>
<path fill="none" stroke="#131807" stroke-width="0.5" stroke-linecap="round" stroke-linejoin="round" d="M157.985,25.332
	c0,0,4.128-3.429,5.472-4.569c1.343-1.143,4.456-5.225,5.501-6.355c1.047-1.129,6.708-5.904,7.488-6.232
	c0.779-0.327,1.937-1.164,1.937-1.164"/>
<path fill="none" stroke="#FFFFFF" stroke-width="0.5" stroke-linecap="round" stroke-linejoin="round" d="M5.201,4.27
	c0,0,12.2,3.6,14.801,4.6c2.6,1,9.8,4.801,11.6,5.801s10.435,4.861,12.2,5.801c1.875,0.996,4.938,2.309,4.938,2.309"/>
<path fill="#FFFFFF" stroke="#131807" stroke-width="0.5" d="M163.418,133.358c-1.942,2.896-3.828,5.016-5.676,6.6
	c-1.849,1.584-25.812,5.637-36.106,3.656l-5-1.168c-6.334-5.5-18.668-13.166-22.001-43.166c-3.763-33.861,1.951-43.555,1.951-43.555
	s4.646-0.004,10.972-3.814s5.174-2.842,5.174-2.842s0.984-1.887,2.557-5.646s3.51-8.326,4.505-9.949
	c0.994-1.623,2.607-4.327,2.607-4.327s1.349,0.741,2.806,0.817c1.456,0.075,3.551-0.402,5.301-2.979
	c1.75-2.578,1.06-3.344,1.06-3.344s5.221-1.654,7.574-2.273c2.354-0.619,7.702-2.41,9.533-2.877s3.815-0.648,6.412-1.568
	l0.522-0.152c0,0,2.116,0.051,2.801,0.686s-0.106,4.1-0.964,5.85s-2.881,4.074-4.276,5.58c-1.396,1.508-9.339,7.89-8.31,7.189
	c1.03-0.7,3.074-2.496,5.769-4.582c2.693-2.084,7.548-6.367,7.046-5.688c-0.502,0.682-3.465,6.078-4.819,8.641
	c-1.354,2.563-7.244,10.848-13.331,17.422l-3.659,3.6c0,0-6.875,6.438-8.313,9.063s-4.714,7.153-1,11.063
	c2.375,2.5,3.219,2.531,4.75,3.313l1.438,0.625c0,0,25.646,7.896,32.813,37.563C165.552,117.093,167.472,127.31,163.418,133.358z"/>
<path fill="#20A49A" d="M95.802,59.28c0,0,6.182-0.06,12.508-3.87s5.174-2.841,5.174-2.841s0.152,0.211-4.848,8.211
	S95.469,86.114,94.469,88.947S92.635,65.78,95.802,59.28z"/>
<path fill="#20A49A" d="M95.136,92.614c1-2.834,9.166-20.167,14.166-28.167s4.848-8.211,4.848-8.211s-1.598,12.794,0.152,19.294
	C107.052,78.53,95.136,92.614,95.136,92.614z"/>
<path d="M91.052,141.78l21.5-12c0,0-1-10-6.25-15.168c0,0-10.667-11-11.833-22.5c-2-33.5,2.666-36.5,2.666-36.5
	s3.6-20.075-3.2-29.009s-5.333-7.066-8.267-9.6c-2.933-2.534-5.2-4.534-10-6.135c-4.8-1.6-10.533-2.4-14.533-2.133
	s-9.2,1.334-12.399,1.6c-3.2,0.268-6.559,0.381-7.996,0.506l-0.938,0.095c-0.8,0.2-2.8,0.333-3.199,1.134
	c-0.4,0.799,0.8,1.866,2,2.866c1.199,1,2.399,1.601,5.399,3.8c3,2.2,4.734,3.867,4.734,3.867c1.212,1.414-0.639,0.991-1.605,0.703
	c-0.31-0.092-0.528-0.17-0.528-0.17l0.667,0.4c0,0,2.333,1.6,4.533,2.799c2.199,1.201,3.8,2,5,2.601
	c1.199,0.601,2.399,1.601,2.399,0.601s-1.8-2.201-2.2-3.4c-0.399-1.2-1.6-2.4-0.199-2.4c1.399,0,3.6,0.2,6,1
	c2.399,0.801,5.6,0,9.199,2.4c3.601,2.4,6.4,5.199,8.801,7.8c2.399,2.601,7.399,7,7.399,7s-2.8-4.399-4.399-7
	c-1.601-2.601-5.2-8-6-8.8c-0.801-0.801-3.2-3.4-3.2-5.2s-0.2-2.8,2-2.8s5.6,1,7.8,3.6c0,0,10.4,6.543,10.9,17.209
	c0.5,10.667-4,21.834-7.833,27c-3.834,5.167-11.667,9.667-13.667,11c-2,1.334-3.833,2.001-5,2.667c-1.167,0.667-1.5,1-1.167,1.833
	c0.334,0.834,6.167,0.667,11.167,5C78.802,86.446,101.802,108.28,91.052,141.78z"/>
<path fill="#173B8F" d="M189.104,126.851c-3.6,1-16.303,2.426-26.305,0.801c-7.702-1.252-6.2-0.6-11.4-1.801
	c-5.2-1.197-11.564-2.004-17.764-2.404c-6.201-0.4-29.668,5.334-36.637,7.404c-6.8,2.021-19.599,5-29.998,6.201
	c-10.4,1.199-29.801-4.801-39.4-11.799c-9.601-7-16.8-11.801-19.8-12.6c-3-0.801-5.2-1.102-7.801-0.701v77.1h189.104V126.851z"/>
<path fill="#FFFFFF" d="M77.311,157.495c-0.457-0.873-0.751-1.547-0.884-2.021s-0.333-0.713-0.599-0.713
	c-0.114,0-0.219,0.086-0.313,0.256c-0.096,0.172-0.19,0.391-0.285,0.656s-0.18,0.531-0.256,0.797s-0.172,0.514-0.285,0.742
	l-2.964,6.041c-0.418,0.875-0.723,1.492-0.912,1.854c-0.19,0.361-0.285,0.637-0.285,0.826c0,0.266,0.322,0.398,0.969,0.398h10.317
	L77.311,157.495z M70.67,168.983c-0.551,0.02-0.988,0.086-1.312,0.199c-0.323,0.115-0.58,0.295-0.77,0.543
	c-0.189,0.246-0.36,0.598-0.513,1.053c-0.19,0.57-0.485,1.256-0.884,2.053s-0.798,1.596-1.196,2.393
	c-0.399,0.799-0.761,1.529-1.083,2.195c-0.323,0.664-0.522,1.168-0.599,1.51c-0.114,0.646-0.257,1.072-0.428,1.281
	s-0.39,0.334-0.655,0.371c-0.381,0.035-0.827,0.08-1.34,0.133c-0.514,0.055-1.017,0.1-1.511,0.135s-0.931,0.063-1.311,0.08
	c-0.381,0.018-0.608,0.027-0.684,0.027c-0.19,0-0.333-0.105-0.428-0.314c-0.096-0.209-0.143-0.408-0.143-0.598
	c0-0.531,0.047-0.883,0.143-1.055c0.095-0.17,0.275-0.295,0.541-0.371c0.57-0.15,1.149-0.426,1.738-0.826
	c0.589-0.398,1.073-1.111,1.454-2.137c0.076-0.266,0.408-0.941,0.997-2.023s1.302-2.395,2.138-3.934s1.738-3.211,2.707-5.016
	s1.862-3.572,2.68-5.301c0.816-1.729,1.491-3.334,2.023-4.816c0.531-1.48,0.798-2.658,0.798-3.533c0-0.113-0.038-0.275-0.114-0.484
	s-0.161-0.447-0.256-0.713c-0.096-0.266-0.181-0.504-0.257-0.713s-0.113-0.369-0.113-0.484c0-0.189,0.123-0.398,0.37-0.627
	c0.246-0.227,0.541-0.445,0.883-0.654s0.685-0.381,1.026-0.514s0.608-0.199,0.798-0.199c0.229,0,0.58,0.238,1.055,0.713
	c0.475,0.477,0.864,1.037,1.169,1.684c1.292,2.74,2.659,5.67,4.104,8.789c1.443,3.119,3.248,6.58,5.414,10.385
	c1.367,2.395,2.518,4.295,3.449,5.701c0.93,1.406,1.682,2.48,2.252,3.221s0.979,1.244,1.225,1.51s0.371,0.457,0.371,0.57
	c0,0.418-0.143,0.693-0.428,0.826s-0.58,0.199-0.883,0.199c-0.229,0-0.551-0.018-0.969-0.057c-0.418-0.037-0.855-0.094-1.313-0.17
	c-0.455-0.076-0.883-0.152-1.281-0.229c-0.4-0.076-0.695-0.152-0.885-0.229c-0.342-0.076-0.627-0.313-0.855-0.713
	c-0.229-0.398-0.418-0.844-0.568-1.338c-0.115-0.342-0.352-0.922-0.713-1.74c-0.361-0.816-0.75-1.643-1.168-2.479
	s-0.818-1.586-1.197-2.252c-0.381-0.664-0.666-1.035-0.855-1.111c-0.381-0.189-1.025-0.352-1.938-0.484s-1.9-0.236-2.965-0.313
	s-2.109-0.123-3.135-0.143c-1.026-0.02-1.824-0.029-2.395-0.029C71.952,168.956,71.221,168.966,70.67,168.983z"/>
<path fill="#FFFFFF" d="M13.984,177.755c0.171-0.172,0.352-0.258,0.542-0.258c0.531,0,1.158,0.182,1.881,0.543
	c0.722,0.361,1.614,0.541,2.679,0.541c1.025,0,1.853-0.352,2.479-1.055s0.94-1.475,0.94-2.311c0-0.76-0.18-1.654-0.538-2.682
	s-0.802-2.119-1.33-3.279s-1.104-2.357-1.726-3.594c-0.623-1.236-1.198-2.434-1.727-3.594s-0.972-2.254-1.33-3.281
	c-0.358-1.025-0.537-1.9-0.537-2.623c0-0.646,0.255-1.568,0.766-2.766s1.191-2.406,2.043-3.623s1.837-2.271,2.958-3.166
	c1.12-0.893,2.288-1.34,3.505-1.34c0.266,0,0.654,0.029,1.168,0.086c0.513,0.059,1.017,0.154,1.511,0.287
	c0.494,0.135,0.931,0.307,1.311,0.518s0.57,0.469,0.57,0.775c0,0.766-0.143,1.264-0.428,1.494s-0.959,0.363-2.023,0.402
	c-2.508,0.076-4.313,0.656-5.415,1.738c-1.102,1.084-1.652,2.422-1.652,4.018c0,0.988,0.321,2.234,0.965,3.734
	c0.643,1.502,1.353,3.117,2.129,4.846c0.775,1.729,1.485,3.516,2.129,5.357c0.643,1.844,0.965,3.602,0.965,5.273
	c0,0.305-0.096,0.932-0.286,1.881s-0.543,1.928-1.057,2.936s-1.198,1.91-2.054,2.707s-1.968,1.197-3.336,1.197
	c-0.342,0-0.779-0.059-1.311-0.172c-0.532-0.115-1.055-0.268-1.567-0.457c-0.514-0.189-0.97-0.391-1.368-0.598
	c-0.399-0.211-0.637-0.41-0.713-0.6c-0.114-0.342-0.209-0.676-0.285-0.998c-0.076-0.324-0.113-0.676-0.113-1.057
	C13.729,178.22,13.813,177.925,13.984,177.755z"/>
<path fill="#FFFFFF" d="M51.617,163.384c0,0.113-0.104,0.293-0.313,0.537s-0.467,0.498-0.77,0.762
	c-0.305,0.264-0.6,0.49-0.885,0.678c-0.285,0.189-0.521,0.283-0.711,0.283c-1.711,0.139-3.297,0.217-4.76,0.234
	s-2.766,0.043-3.904,0.078c0,4.586,0.893,8.033,2.678,10.346c1.785,2.311,4.637,3.467,8.551,3.467c0.836,0,1.396,0.076,1.682,0.227
	c0.285,0.152,0.428,0.475,0.428,0.969c0,0.303-0.285,0.607-0.855,0.912c-0.57,0.303-1.578,0.455-3.021,0.455
	c-2.166,0-4.01-0.238-5.529-0.713s-2.793-1.111-3.816-1.91c-1.023-0.797-1.828-1.719-2.414-2.764s-1.03-2.148-1.333-3.307
	c-0.303-1.16-0.492-2.328-0.567-3.506c-0.076-1.178-0.113-2.301-0.113-3.365c0-3.801,0.35-6.982,1.05-9.549
	c0.699-2.564,1.617-4.637,2.753-6.213c1.137-1.578,2.455-2.699,3.957-3.363c1.502-0.666,3.051-0.998,4.646-0.998
	s2.678,0.123,3.248,0.367s0.855,0.688,0.855,1.326c0,0.83-0.361,1.244-1.084,1.244h-3.361c-0.912,0-1.797,0.189-2.652,0.57
	s-1.633,1.094-2.336,2.139s-1.301,2.48-1.795,4.305c-0.494,1.826-0.818,4.164-0.969,7.016c0.303-0.264,0.664-0.48,1.082-0.65
	s0.912-0.254,1.482-0.254h7.695C51.256,162.706,51.617,162.933,51.617,163.384z"/>
<path fill="#FFFFFF" d="M100.868,158.862c-0.095-2.754-0.237-4.775-0.427-6.066c-0.039-0.229-0.096-0.438-0.172-0.627
	s-0.228-0.342-0.455-0.457c-0.57-0.303-0.855-0.645-0.855-1.025c0-0.531,0.332-1.033,0.997-1.508s1.433-0.902,2.304-1.281
	c0.871-0.381,1.771-0.684,2.698-0.912s1.638-0.342,2.13-0.342c0.984,0,2.12,0.123,3.407,0.367s2.479,0.594,3.578,1.045
	c0.497,0.227,0.994,0.584,1.491,1.074s0.946,1.029,1.348,1.619s0.727,1.197,0.976,1.824c0.248,0.627,0.373,1.207,0.373,1.738
	c0,2.66-0.325,4.484-0.974,5.471c-0.383,0.609-0.879,1.264-1.49,1.967s-1.25,1.369-1.916,1.996s-1.294,1.148-1.883,1.566
	s-1.035,0.627-1.339,0.627c-0.305,0-0.675-0.074-1.111-0.227c-0.438-0.152-0.855-0.324-1.254-0.514
	c-0.399-0.189-0.741-0.398-1.026-0.627s-0.428-0.398-0.428-0.514c0-0.189,0.095-0.352,0.285-0.484
	c0.189-0.133,0.551-0.256,1.083-0.369c1.824-0.381,3.268-1.178,4.332-2.395c1.063-1.217,1.596-2.564,1.596-4.047
	c0-0.57-0.066-1.264-0.198-2.08c-0.133-0.816-0.368-1.605-0.708-2.365s-0.802-1.406-1.386-1.939
	c-0.585-0.531-1.311-0.797-2.178-0.797c-0.83,0-1.595,0.113-2.292,0.342c-0.698,0.229-1.425,0.57-2.179,1.025
	c-0.076,0.646-0.151,1.416-0.227,2.309c-0.075,0.895-0.141,1.826-0.197,2.795s-0.104,1.928-0.142,2.877
	c-0.038,0.951-0.057,1.807-0.057,2.566v15.049c0,2.09-0.242,3.629-0.726,4.617c-0.484,0.988-1.325,1.482-2.524,1.482
	c-0.627,0-0.939-0.285-0.939-0.855c0-0.152,0.028-0.322,0.085-0.512c0.057-0.191,0.133-0.447,0.229-0.77
	c0.095-0.322,0.171-0.76,0.228-1.311s0.086-1.281,0.086-2.193v-8.486C101.011,164.833,100.963,161.614,100.868,158.862z"/>
<path fill="#FFFFFF" d="M125.59,159.681c0.533-1.939,1.391-3.707,2.57-5.305c1.182-1.598,2.695-2.9,4.543-3.908
	s4.084-1.512,6.713-1.512c1.523,0,2.971,0.295,4.342,0.885s2.57,1.502,3.6,2.738c1.027,1.236,1.848,2.814,2.457,4.734
	c0.609,1.922,0.914,4.193,0.914,6.818c0,2.51-0.391,4.734-1.172,6.674s-1.818,3.566-3.113,4.879s-2.771,2.311-4.428,2.994
	c-1.656,0.686-3.381,1.027-5.17,1.027c-1.41,0-2.838-0.305-4.285-0.912c-1.447-0.609-2.742-1.512-3.885-2.711
	c-1.143-1.197-2.076-2.691-2.801-4.479c-0.723-1.787-1.084-3.859-1.084-6.219C124.791,163.522,125.057,161.62,125.59,159.681z
	 M129.314,167.458c0.268,1.295,0.754,2.578,1.459,3.854s1.666,2.391,2.887,3.342c1.219,0.951,2.781,1.428,4.688,1.428
	c0.799,0,1.695-0.152,2.686-0.457s1.934-0.875,2.83-1.713c0.895-0.838,1.639-1.988,2.229-3.455c0.59-1.465,0.887-3.34,0.887-5.625
	c0-2.359-0.248-4.34-0.744-5.939c-0.496-1.598-1.143-2.883-1.943-3.854s-1.715-1.676-2.744-2.113s-2.096-0.656-3.199-0.656
	c-1.486,0-2.82,0.334-4.002,1s-2.172,1.551-2.973,2.654s-1.41,2.398-1.828,3.883c-0.42,1.484-0.629,3.047-0.629,4.684
	C128.916,165.175,129.049,166.163,129.314,167.458z"/>
<path fill="#FFFFFF" d="M160.357,158.862c-0.095-2.754-0.237-4.775-0.427-6.066c-0.039-0.229-0.096-0.438-0.172-0.627
	s-0.228-0.342-0.455-0.457c-0.57-0.303-0.855-0.645-0.855-1.025c0-0.531,0.332-1.033,0.997-1.508s1.433-0.902,2.304-1.281
	c0.871-0.381,1.771-0.684,2.698-0.912s1.638-0.342,2.13-0.342c0.984,0,2.12,0.123,3.407,0.367s2.479,0.594,3.578,1.045
	c0.497,0.227,0.994,0.584,1.491,1.074s0.946,1.029,1.348,1.619s0.727,1.197,0.976,1.824c0.248,0.627,0.373,1.207,0.373,1.738
	c0,2.66-0.325,4.484-0.974,5.471c-0.383,0.609-0.879,1.264-1.49,1.967s-1.25,1.369-1.916,1.996s-1.294,1.148-1.883,1.566
	s-1.035,0.627-1.339,0.627c-0.305,0-0.675-0.074-1.111-0.227c-0.438-0.152-0.855-0.324-1.254-0.514
	c-0.399-0.189-0.741-0.398-1.026-0.627s-0.428-0.398-0.428-0.514c0-0.189,0.095-0.352,0.285-0.484
	c0.189-0.133,0.551-0.256,1.083-0.369c1.824-0.381,3.268-1.178,4.332-2.395c1.063-1.217,1.596-2.564,1.596-4.047
	c0-0.57-0.066-1.264-0.198-2.08c-0.133-0.816-0.368-1.605-0.708-2.365s-0.802-1.406-1.386-1.939
	c-0.585-0.531-1.311-0.797-2.178-0.797c-0.83,0-1.595,0.113-2.292,0.342c-0.698,0.229-1.425,0.57-2.179,1.025
	c-0.076,0.646-0.151,1.416-0.227,2.309c-0.075,0.895-0.141,1.826-0.197,2.795s-0.104,1.928-0.142,2.877
	c-0.038,0.951-0.057,1.807-0.057,2.566v15.049c0,2.09-0.242,3.629-0.726,4.617c-0.484,0.988-1.325,1.482-2.524,1.482
	c-0.627,0-0.939-0.285-0.939-0.855c0-0.152,0.028-0.322,0.085-0.512c0.057-0.191,0.133-0.447,0.229-0.77
	c0.095-0.322,0.171-0.76,0.228-1.311s0.086-1.281,0.086-2.193v-8.486C160.5,164.833,160.452,161.614,160.357,158.862z"/>
<ellipse transform="matrix(0.9703 0.2421 -0.2421 0.9703 6.9682 -15.2918)" fill="#FFFFFF" cx="65.718" cy="20.713" rx="5.828" ry="4.005"/>
<path d="M67.572,17.78c2.028,0.773,3.145,2.342,2.854,3.938c-0.33,1.816-2.914,2.725-5.443,2.265
	c-2.661-0.785-4.314-2.306-3.984-4.122c0.267-1.468,1.799-2.297,3.746-2.509c0,0,0.463,0.319,0.658,0.99
	c0.196,0.671,0.079,0.968,0.023,1.274c-0.056,0.308,0.011,0.638,0.486,0.471c0.475-0.168,0.922-0.532,1.062-0.951
	s0.327-0.668,0.348-1.001C67.344,17.798,67.572,17.78,67.572,17.78z"/>
<path fill="none" stroke="#FFFFFF" stroke-width="0.5" stroke-linecap="round" stroke-linejoin="round" d="M48.739,22.78
	c0,0,7.75,4.875,9.188,5.875"/>
</svg>
